<svg xmlns="http://www.w3.org/2000/svg" version="1.1" xmlns:xlink="http://www.w3.org/1999/xlink" xmlns:svgjs="http://svgjs.dev/svgjs" width="1500" height="1500" viewBox="0 0 1500 1500"><rect width="1500" height="1500" fill="#ffffff"></rect><g transform="matrix(0.6666666666666666,0,0,0.6666666666666666,249.78425655976667,249.78425655976673)"><svg viewBox="0 0 343 343" data-background-color="#ffffff" preserveAspectRatio="xMidYMid meet" height="1500" width="1500" xmlns="http://www.w3.org/2000/svg" xmlns:xlink="http://www.w3.org/1999/xlink"><g id="tight-bounds" transform="matrix(1,0,0,1,0.0740000000000407,0.07400000000001228)"><svg viewBox="0 0 342.85155851775386 342.85155851775386" height="342.85155851775386" width="342.85155851775386"><g><svg></svg></g><g><svg viewBox="0 0 342.85155851775386 342.85155851775386" height="342.85155851775386" width="342.85155851775386"><g><path d="M0 171.426c0-94.676 76.75-171.426 171.426-171.426 94.676 0 171.426 76.75 171.426 171.426 0 94.676-76.75 171.426-171.426 171.426-94.676 0-171.426-76.75-171.426-171.426zM171.426 339.068c92.586 0 167.642-75.056 167.642-167.642 0-92.586-75.056-167.642-167.642-167.642-92.586 0-167.642 75.056-167.642 167.642 0 92.586 75.056 167.642 167.642 167.642z" data-fill-palette-color="tertiary" fill="#273ed4" stroke="transparent"></path><ellipse rx="164.56874808852186" ry="164.56874808852186" cx="171.42577925887693" cy="171.42577925887693" fill="#273ed4" stroke="transparent" stroke-width="0" fill-opacity="1" data-fill-palette-color="tertiary"></ellipse></g><g transform="matrix(1,0,0,1,64.84655864529837,116.50546697073179)"><svg viewBox="0 0 213.1584412271571 109.84062457629028" height="109.84062457629028" width="213.1584412271571"><g><svg viewBox="0 0 213.1584412271571 109.84062457629028" height="109.84062457629028" width="213.1584412271571"><g><svg viewBox="0 0 213.1584412271571 109.84062457629028" height="109.84062457629028" width="213.1584412271571"><g transform="matrix(1,0,0,1,0,67.88591257545826)"><svg viewBox="0 0 213.1584412271571 41.95471200083201" height="41.95471200083201" width="213.1584412271571"><g id="textblocktransform"><svg viewBox="0 0 213.1584412271571 41.95471200083201" height="41.95471200083201" width="213.1584412271571" id="textblock"><g><svg viewBox="0 0 213.1584412271571 41.95471200083201" height="41.95471200083201" width="213.1584412271571"><g transform="matrix(1,0,0,1,0,0)"><svg width="213.1584412271571" viewBox="1.5 -36.25 239.28 47.1" height="41.95471200083201" data-palette-color="#ffffff"><path d="M13.25-34.3L13.25-34.3Q15-34.3 16.6-33.98 18.2-33.65 19.53-33.23 20.85-32.8 21.78-32.35 22.7-31.9 23.05-31.65L23.05-31.65 20.6-27.35 19.95-27.7Q19.3-28.05 18.25-28.5 17.2-28.95 15.95-29.3 14.7-29.65 13.55-29.65L13.55-29.65Q11.75-29.65 10.43-28.8 9.1-27.95 9.1-26.15L9.1-26.15Q9.1-23.9 10.55-22.48 12-21.05 15.1-19.85L15.1-19.85Q17.1-19.05 18.68-18.18 20.25-17.3 21.35-16.15 22.45-15 23.03-13.5 23.6-12 23.6-9.9L23.6-9.9Q23.6-8 22.88-6.15 22.15-4.3 20.73-2.88 19.3-1.45 17.2-0.58 15.1 0.3 12.35 0.3L12.35 0.3Q10.4 0.3 8.65-0.1 6.9-0.5 5.48-1.03 4.05-1.55 3.03-2.1 2-2.65 1.5-2.95L1.5-2.95 3.6-7.55 4.5-7.05Q5.4-6.55 6.7-5.95 8-5.35 9.45-4.85 10.9-4.35 11.95-4.35L11.95-4.35Q14.6-4.35 15.9-5.65 17.2-6.95 17.2-9.3L17.2-9.3Q17.2-10.4 16.85-11.23 16.5-12.05 15.85-12.65 15.2-13.25 14.28-13.73 13.35-14.2 12.2-14.65L12.2-14.65Q9.95-15.6 8.18-16.55 6.4-17.5 5.15-18.73 3.9-19.95 3.25-21.53 2.6-23.1 2.6-25.3L2.6-25.3Q2.6-27.15 3.4-28.78 4.2-30.4 5.6-31.63 7-32.85 8.95-33.58 10.9-34.3 13.25-34.3ZM24.35-20.85L24.35-24.9 28.85-24.9 29.85-30.75 34.55-31.8 34.55-24.9 40.7-24.9 40-20.85 34.55-20.85 34.55-6.05Q34.55-4.75 35.25-4.38 35.95-4 36.8-4L36.8-4Q37.5-4 38.2-4.1 38.9-4.2 39.45-4.35L39.45-4.35Q40.1-4.5 40.7-4.7L40.7-4.7 41.65-0.95 41.2-0.8Q40.75-0.6 39.87-0.38 39-0.15 37.82 0.03 36.65 0.2 35.25 0.2L35.25 0.2Q33.85 0.2 32.67-0.1 31.5-0.4 30.65-1.07 29.8-1.75 29.32-2.8 28.85-3.85 28.85-5.4L28.85-5.4 28.85-20.85 24.35-20.85ZM59.95-12.7L59.95-24.9 65.65-24.9 65.65-12.05Q65.65-9.05 66.02-7.03 66.4-5 66.84-3.75L66.84-3.75Q67.4-2.25 68.05-1.4L68.05-1.4 63.6 0.4Q63-0.15 62.5-1L62.5-1Q62.1-1.7 61.67-2.73 61.25-3.75 61.1-5.15L61.1-5.15Q59.75-2.2 57.3-0.95 54.85 0.3 52.2 0.3L52.2 0.3Q48.25 0.3 46.57-2 44.9-4.3 44.9-8.3L44.9-8.3 44.9-24.9 50.6-24.9 50.6-8.4Q50.6-6.3 51.35-5.1 52.1-3.9 53.9-3.9L53.9-3.9Q55-3.9 56.07-4.53 57.15-5.15 58.02-6.3 58.9-7.45 59.42-9.08 59.95-10.7 59.95-12.7L59.95-12.7ZM95.09-1.4L90.64 0.4Q90.54 0.35 90.19-0.08 89.84-0.5 89.42-1.25 88.99-2 88.59-3.13 88.19-4.25 88.09-5.75L88.09-5.75Q87.24-2.75 85.37-1.23 83.49 0.3 80.29 0.3L80.29 0.3Q77.94 0.3 76.22-0.58 74.49-1.45 73.34-3.08 72.19-4.7 71.64-7 71.09-9.3 71.09-12.1L71.09-12.1Q71.09-14.95 71.97-17.38 72.84-19.8 74.42-21.55 75.99-23.3 78.19-24.3 80.39-25.3 83.04-25.3L83.04-25.3Q83.94-25.3 84.97-25.2 85.99-25.1 86.99-24.95L86.99-24.95 86.99-36.25 92.69-35.25 92.69-12.05Q92.69-9.05 93.04-7.08 93.39-5.1 93.84-3.88 94.29-2.65 94.67-2.1 95.04-1.55 95.09-1.4L95.09-1.4ZM81.24-3.75Q82.49-3.75 83.54-4.6 84.59-5.45 85.37-6.83 86.14-8.2 86.57-9.95 86.99-11.7 86.99-13.55L86.99-13.55 86.99-20.75Q86.49-20.9 85.49-21.1 84.49-21.3 83.69-21.3L83.69-21.3Q81.79-21.3 80.57-20.65 79.34-20 78.59-18.85 77.84-17.7 77.54-16.1 77.24-14.5 77.24-12.6L77.24-12.6Q77.24-10.85 77.34-9.25 77.44-7.65 77.87-6.43 78.29-5.2 79.09-4.48 79.89-3.75 81.24-3.75L81.24-3.75ZM119.99-24.9L119.74-10.1Q119.74-8.6 119.97-7.35 120.19-6.1 120.47-4.88 120.74-3.65 120.99-2.4 121.24-1.15 121.24 0.35L121.24 0.35Q121.24 5.65 118.54 8.25 115.84 10.85 111.24 10.85L111.24 10.85Q109.74 10.85 108.24 10.58 106.74 10.3 105.47 9.95 104.19 9.6 103.29 9.25 102.39 8.9 102.09 8.75L102.09 8.75 103.49 4.4Q104.19 4.7 105.06 5.03 105.94 5.35 106.87 5.65 107.79 5.95 108.79 6.15 109.79 6.35 110.74 6.35L110.74 6.35Q113.54 6.35 114.79 4.67 116.04 3 116.04 0.35L116.04 0.35Q116.04-2.05 115.04-4.6L115.04-4.6Q113.64-1.95 111.31-0.83 108.99 0.3 106.44 0.3L106.44 0.3Q102.49 0.3 100.81-2 99.14-4.3 99.14-8.3L99.14-8.3 99.14-24.9 104.84-24.9 104.84-8.45Q104.84-6.35 105.59-5.15 106.34-3.95 108.14-3.95L108.14-3.95Q109.09-3.95 110.17-4.5 111.24-5.05 112.12-6.03 112.99-7 113.56-8.38 114.14-9.75 114.14-11.35L114.14-11.35 114.14-24.9 119.99-24.9ZM146.24-16.15L146.09-33.85 152.04-33.85 152.04 0.05 147.09 0.05 135.69-17.75Q134.74-19.2 133.61-21.03 132.49-22.85 131.49-24.4L131.49-24.4Q131.64-22.8 131.76-21.05 131.89-19.3 131.89-17.7L131.89-17.7 132.04 0 126.09 0 126.09-33.95 130.74-33.95 142.49-16.35Q143.49-14.9 144.51-13.28 145.54-11.65 146.54-10.15L146.54-10.15Q146.44-11.75 146.34-13.38 146.24-15 146.24-16.15L146.24-16.15ZM168.34-25.5Q174.09-25.5 176.69-22.1 179.29-18.7 179.29-12.75L179.29-12.75Q179.29-9.95 178.59-7.53 177.89-5.1 176.46-3.33 175.04-1.55 172.89-0.53 170.74 0.5 167.89 0.5L167.89 0.5Q165.04 0.5 162.96-0.38 160.89-1.25 159.54-2.9 158.19-4.55 157.56-6.9 156.94-9.25 156.94-12.2L156.94-12.2Q156.94-15.05 157.64-17.48 158.34-19.9 159.76-21.68 161.19-23.45 163.34-24.48 165.49-25.5 168.34-25.5L168.34-25.5ZM167.84-21.3Q166.39-21.3 165.46-20.65 164.54-20 164.01-18.82 163.49-17.65 163.29-16.07 163.09-14.5 163.09-12.7L163.09-12.7Q163.09-10.85 163.31-9.2 163.54-7.55 164.14-6.33 164.74-5.1 165.76-4.4 166.79-3.7 168.39-3.7L168.39-3.7Q169.84-3.7 170.76-4.35 171.69-5 172.21-6.18 172.74-7.35 172.94-8.9 173.14-10.45 173.14-12.25L173.14-12.25Q173.14-14.1 172.91-15.75 172.69-17.4 172.09-18.65 171.49-19.9 170.46-20.6 169.44-21.3 167.84-21.3L167.84-21.3ZM181.53-20.85L181.53-24.9 186.03-24.9 187.03-30.75 191.73-31.8 191.73-24.9 197.88-24.9 197.18-20.85 191.73-20.85 191.73-6.05Q191.73-4.75 192.43-4.38 193.13-4 193.98-4L193.98-4Q194.68-4 195.38-4.1 196.08-4.2 196.63-4.35L196.63-4.35Q197.28-4.5 197.88-4.7L197.88-4.7 198.83-0.95 198.38-0.8Q197.93-0.6 197.06-0.38 196.18-0.15 195.01 0.03 193.83 0.2 192.43 0.2L192.43 0.2Q191.03 0.2 189.86-0.1 188.68-0.4 187.83-1.07 186.98-1.75 186.51-2.8 186.03-3.85 186.03-5.4L186.03-5.4 186.03-20.85 181.53-20.85ZM200.08-11.85Q200.08-15.2 201.01-17.75 201.93-20.3 203.56-22.03 205.18-23.75 207.38-24.63 209.58-25.5 212.13-25.5L212.13-25.5Q214.38-25.5 215.96-24.95 217.53-24.4 218.53-23.45 219.53-22.5 220.01-21.2 220.48-19.9 220.48-18.4L220.48-18.4Q220.48-16.6 219.48-14.98 218.48-13.35 216.61-12.13 214.73-10.9 212.08-10.18 209.43-9.45 206.13-9.4L206.13-9.4Q206.28-8.25 206.61-7.23 206.93-6.2 207.56-5.43 208.18-4.65 209.18-4.2 210.18-3.75 211.68-3.75L211.68-3.75Q212.78-3.75 214.03-4 215.28-4.25 216.33-4.6L216.33-4.6Q217.58-5 218.78-5.5L218.78-5.5 220.28-1.95Q218.98-1.3 217.48-0.8L217.48-0.8Q216.18-0.35 214.48 0 212.78 0.35 210.88 0.35L210.88 0.35Q207.98 0.35 205.93-0.53 203.88-1.4 202.58-3 201.28-4.6 200.68-6.85 200.08-9.1 200.08-11.85L200.08-11.85ZM211.68-21.6Q210.03-21.6 208.96-20.83 207.88-20.05 207.23-18.82 206.58-17.6 206.31-16.07 206.03-14.55 205.98-13L205.98-13Q208.38-13.1 210.06-13.63 211.73-14.15 212.78-14.93 213.83-15.7 214.31-16.6 214.78-17.5 214.78-18.4L214.78-18.4Q214.78-19.85 213.93-20.73 213.08-21.6 211.68-21.6L211.68-21.6ZM232.58-25.5L232.58-25.5Q234.03-25.5 235.43-25.2 236.83-24.9 237.93-24.5L237.93-24.5Q239.23-24.05 240.33-23.55L240.33-23.55 238.63-19.65Q237.63-20.1 236.63-20.45L236.63-20.45Q235.78-20.75 234.75-21.03 233.73-21.3 232.73-21.3L232.73-21.3Q231.58-21.3 230.75-20.75 229.93-20.2 229.93-19.1L229.93-19.1Q229.93-16.25 234.08-14.65L234.08-14.65Q235.63-14.05 236.88-13.38 238.13-12.7 239-11.8 239.88-10.9 240.33-9.73 240.78-8.55 240.78-6.95L240.78-6.95Q240.78-5.55 240.2-4.2 239.63-2.85 238.5-1.8 237.38-0.75 235.75-0.13 234.13 0.5 232.08 0.5L232.08 0.5Q230.43 0.5 228.83 0.13 227.23-0.25 225.95-0.7 224.68-1.15 223.93-1.55L223.93-1.55 223.18-1.9 225.03-6.1 225.68-5.75Q226.33-5.35 227.33-4.9 228.33-4.45 229.48-4.08 230.63-3.7 231.58-3.7L231.58-3.7Q233.33-3.7 234.18-4.4 235.03-5.1 235.03-6.25L235.03-6.25Q235.03-7.55 234.1-8.63 233.18-9.7 231.33-10.4L231.33-10.4Q227.48-11.85 225.8-13.7 224.13-15.55 224.13-18.5L224.13-18.5Q224.13-19.9 224.78-21.18 225.43-22.45 226.55-23.43 227.68-24.4 229.23-24.95 230.78-25.5 232.58-25.5Z" opacity="1" transform="matrix(1,0,0,1,0,0)" fill="#ffffff" class="wordmark-text-0" data-fill-palette-color="quaternary" id="text-0"></path></svg></g></svg></g></svg></g></svg></g><g transform="matrix(1,0,0,1,77.58851462100364,0)"><svg viewBox="0 0 57.98141198514985 57.98141198514985" height="57.98141198514985" width="57.98141198514985"><g><svg xmlns="http://www.w3.org/2000/svg" xmlns:xlink="http://www.w3.org/1999/xlink" version="1.1" x="0" y="0" viewBox="5 5 90 90" enable-background="new 0 0 100 100" xml:space="preserve" height="57.98141198514985" width="57.98141198514985" class="icon-icon-0" data-fill-palette-color="quaternary" id="icon-0"><path d="M94.527 5H89.7h-1.002l-0.016 0.938C88.66 7.336 87.666 8.28 86.266 8.28s-2.394-0.929-2.416-2.326L83.833 5h-1.002-2.244-1.002l-0.016 0.938c-0.022 1.397-1.016 2.342-2.416 2.342-1.401 0-2.394-0.928-2.417-2.326L74.72 5h-1.002-2.244-1.002l-0.016 0.938C70.433 7.336 69.44 8.28 68.039 8.28c-1.4 0-2.394-0.928-2.416-2.326L65.607 5h-1.002H62.36h-1.002l-0.016 0.938C61.32 7.336 60.326 8.28 58.926 8.28c-1.401 0-2.394-0.929-2.417-2.326L56.493 5h-1.002-2.244-1.002l-0.016 0.938c-0.022 1.397-1.016 2.342-2.417 2.342-1.4 0-2.394-0.928-2.417-2.326L47.38 5h-1.002-2.244-1.002l-0.016 0.938C43.094 7.335 42.1 8.28 40.7 8.28c-1.401 0-2.394-0.928-2.417-2.326L38.267 5h-1.002H35.02h-1.002l-0.016 0.938C33.98 7.336 32.986 8.28 31.585 8.28s-2.394-0.929-2.417-2.326L29.153 5h-1.002-2.244-1.002l-0.016 0.938c-0.022 1.397-1.016 2.342-2.417 2.342-1.4 0-2.394-0.928-2.416-2.326L20.04 5h-1.002-2.244-1.002l-0.016 0.938C15.753 7.335 14.76 8.28 13.359 8.28s-2.394-0.928-2.417-2.326L10.926 5H9.924h-3.76H5v0.891 87.963V95h1.164 88.364H95v-1.146V5.891 5H94.527zM87 74H13v-1h74V74zM87 65H13v-1h74V65zM87 56H13v-1h74V56zM87 46H13v-1h74V46zM87 37H13v-1h74V37zM87 28H13v-1h74V28z" fill="#ffffff" data-fill-palette-color="quaternary"></path></svg></g></svg></g><g></g></svg></g></svg></g></svg></g></svg></g><defs></defs></svg><rect width="342.85155851775386" height="342.85155851775386" fill="none" stroke="none" visibility="hidden"></rect></g></svg></g></svg>